# xmcd CD database file
#
# Track frame offsets:
#	150
#	12387
#	26177
#	40727
#	59822
#	82587
#	97467
#	114932
#	129930
#	143905
#
# Disc length: 2122 seconds
#
# Revision: 2
# Processed by: cddbd v1.5.2PL0 Copyright (c) Steve Scherf et al.
# Submitted via: CDex 1.70beta2
#
DISCID=8408480a
DTITLE=Al Green - Greatest Hits
DYEAR=2009
DGENRE=R and B
TTITLE0=Tired Of Being Alone
TTITLE1=Call Me (Come Back Home)
TTITLE2=I'm Still In Love With You
TTITLE3=Here I Am (Come and Take Me)
TTITLE4=Love And Happiness
TTITLE5=Let's Stay Together
TTITLE6=I Can't Get Next To You
TTITLE7=You Ought To Be With Me
TTITLE8=Look What You Done For Me
TTITLE9=Let's Get Married
EXTD=YEAR: 2009
EXTT0=
EXTT1=
EXTT2=
EXTT3=
EXTT4=
EXTT5=
EXTT6=
EXTT7=
EXTT8=
EXTT9=
PLAYORDER=
